<?xml version="1.0" encoding="utf-8"?>
<!-- Generator: Adobe Illustrator 14.0.0, SVG Export Plug-In . SVG Version: 6.00 Build 43363)  -->
<!DOCTYPE svg PUBLIC "-//W3C//DTD SVG 1.1//EN" "http://www.w3.org/Graphics/SVG/1.1/DTD/svg11.dtd">
<svg version="1.1" id="Layer_1" xmlns="http://www.w3.org/2000/svg" xmlns:xlink="http://www.w3.org/1999/xlink" x="0px" y="0px"
	 width="300px" height="300px" viewBox="0 0 300 300" enable-background="new 0 0 300 300" xml:space="preserve">
<circle id="circle2926" fill="none" stroke="#5F6CFF" stroke-width="7" cx="150" cy="150" r="146"/>
<g id="XMLID_1_">
	<g id="g2929">
		<path id="path2931" fill="#5F6CFF" d="M74.217,108.375c0.554,2.066,0.967,4.207-0.554,6.406c-1.518,2.207-3.58,6.199-4.546,7.026
			c-0.959,0.825-2.612,2.065-5.919,0.967c-3.312-1.1-7.581-4.133-8.966-4.405c-1.367-0.281-1.235-3.19-0.545-5.515
			c0.352-1.174,3.125-4.927,4.96-8.061c1.124-1.926,2.27-5.042,2.752-5.992c1.281-2.496,5.282-0.826,7.354,0.688
			c2.063,1.513,0.979,3.24,2.017,4.753C71.804,105.763,73.664,106.308,74.217,108.375z M68.298,112.715
			c0.769-1.72,0.471-3.101-0.14-4.405c-1.108-2.34-2.688-3.515-3.447-3.166c-0.29,0.124-1.372,0.554-2.207,1.445
			c-1.373,1.464-2.27,3.232-2.505,4.143c-0.24,0.91-0.729,3.298,0.372,3.776c1.1,0.479,3.313,2.397,4.608,1.721
			C65.563,115.93,67.687,114.087,68.298,112.715z"/>
	</g>
</g>
<path id="path2933" fill="#5F6CFF" d="M37.845,105.896c-0.589,1.121-3.444,4.822-3.1,6.131c0.344,1.309,1.442,2.412,3.376,2.205
	c1.928-0.207,3.373-3.007,4.73-5.978c1.362-2.969,2.71-5.766,3.318-6.629c0.604-0.861,2.401-1.828,4.479-1.379
	c2.079,0.449,3.438,0.768,4.42,0.724c1.009-0.046,1.604-0.392,2.126-1.035c1.03-1.271,1.104-3.82-0.348-4.304
	c-1.442-0.481-8.06-0.274-8.813-0.758c-0.753-0.482-0.582-3.289-0.068-5.718c0.757-3.582-0.388-4.134-1.641-4.409
	c-1.254-0.274-3.939,1.311-6.976,4.686c-3.026,3.376-4.34,5.304-5.438,6.476c-1.104,1.171-4.064,3.857-4.202,5.305
	c-0.139,1.446,0.965,2.549,2.205,2.755c1.239,0.206,3.854-1.445,4.685-2.687c0.826-1.24,3.104-3.72,3.65-3.375
	c0.552,0.344,0.271,1.516,0,3.031C39.979,102.452,38.434,104.776,37.845,105.896z"/>
<path id="path2935" fill="#5F6CFF" d="M33.338,95.196c-1.206,0.482-3.399,2.205-4.8,1.481c-1.401-0.725-1.854-3.136,0.632-4.236
	c2.479-1.104,4.892-3.444,6.131-3.823c1.24-0.379,2.824-0.345,3.651,0c0.821,0.345,1.585,1.274,1.614,1.723
	c0.034,0.447-0.65,1.273-1.271,1.997c-0.619,0.725-2.342,1.446-3.306,1.825C35.024,94.542,34.544,94.714,33.338,95.196z"/>
<path id="path2937" fill="#5F6CFF" d="M44.939,75.694c2.204-0.116,2.835-0.129,4.547,3.681c2.14,4.754,4.138,7.509,5.309,8.955
	c1.171,1.447,4.132,6.82,4.891,7.922c0.758,1.104,2.205,2.205,3.104,0c0.896-2.204-0.481-5.58-1.446-7.231
	c-0.965-1.654-2.688-3.582-2.55-4.754c0.138-1.17,1.032-3.65,2.894-3.582c1.862,0.067,3.995-1.929,3.927-4.133
	c-0.064-2.205-2.893-3.515-4.063-2.895c-1.171,0.62-3.926,2.895-4.34,3.514c-0.413,0.62-1.508,0.423-2.127-0.404
	c-0.62-0.826-1.934-2.574-2.454-3.539c-0.525-0.964-1.688-3.521-3.616-3.383c-1.93,0.137-4.968,0.858-7.414,1.963
	c-2.447,1.102-2.451,1.933-2.521,2.966c-0.067,1.033,1.471,1.278,2.361,1.348C42.332,76.191,42.735,75.811,44.939,75.694z"/>
<path id="path2939" fill="#5F6CFF" d="M76.423,69.021c1.308,3.396,2.851,6.763,3.443,8.331c0.592,1.567,2.514,7.831,2.928,9.257
	c0.413,1.425,1.063,4.478,2.854,5.304c1.791,0.827,3.169-0.688,4.139-2.617c0.964-1.93-0.109-6.965-1.521-10.746
	c-1.4-3.782-2.756-6.2-3.031-7.716c-0.271-1.515-0.897-6.775-2.188-7.603c-1.287-0.826-3.322-1.354-4.838-0.113
	C76.758,64.309,75.116,65.623,76.423,69.021z"/>
<path id="path2941" fill="#5F6CFF" d="M86.514,100.248c0.551,1.31,1.702,2.894,3.641,2.479c1.939-0.413,4.522-0.9,5.039-3.24
	c0.521-2.339,0.827-3.269,0.521-4.406c-0.313-1.136-1.55-1.55-2.997-2.065c-1.446-0.518-3.926,0.207-4.959,0.826
	c-1.033,0.619-1.654,2.811-1.654,3.679C86.1,98.389,85.963,98.939,86.514,100.248z"/>
<path id="path2943" fill="#5F6CFF" d="M102.599,59.122c0.793-0.555,3.604-1.485,5.993-2.755c3.841-2.039,6.751-4.547,9.438-4.479
	c2.688,0.068,3.726,3.514,3.031,5.373c-0.688,1.859-1.997,5.786-1.855,6.819c0.138,1.033,0.414,3.376,1.235,3.857
	c0.827,0.481,5.167,1.516,5.93,2.618c0.758,1.102,1.028,1.516,0.821,2.343c-0.207,0.826-1.584,1.858-2.411,1.858
	c-0.821,0-2.063-0.274-2.962-0.896c-0.896-0.621-4.133-2.688-4.685-2.756c-0.551-0.068-1.93-0.068-3.651,1.585
	c-1.721,1.653-6.268,6.682-7.301,7.646c-1.034,0.965-3.79,2.824-4.479,3.031c-0.688,0.206-2.204,0.344-2.479-1.516
	c-0.271-1.86,3.031-5.513,4.202-6.82c1.171-1.308,6.819-7.371,7.026-7.784c0.206-0.413,2.136-3.65,1.648-4.409
	c-0.479-0.758-1.309-0.758-2.411-0.137c-1.103,0.619-5.23,2.962-6.889,2.894c-1.653-0.068-2.343-1.859-2.618-2.48
	C99.912,62.498,100.532,60.568,102.599,59.122z"/>
<path id="path2945" fill="#5F6CFF" d="M125.676,50.236c0.138,1.447,1.166,16.142,1.582,17.084c0.416,0.941,0.76,2.826,2,3.238
	c1.24,0.414,3.031-0.199,3.72-1.134c0.689-0.934,0.568-8.047,1.24-8.512c0.672-0.464,1.722-1.382,3.101-1.379
	c1.377,0.004,2.479,1.328,3.718-0.188c1.235-1.517,1.729-3.808,1.178-5.185c-0.551-1.378-2.896-1.93-5.103-0.828
	c-2.199,1.103-4.685,2.753-4.96-1.447c-0.271-4.2-1.541-7.508-2.644-8.609c-1.104-1.104-6.449-1.554-8.516-1.003
	c-2.067,0.551-3.858,1.968-3.858,3.069c0,1.103,1.896,2.244,4.11,2.773C123.456,48.65,125.538,48.788,125.676,50.236z"/>
<path id="path2947" fill="#5F6CFF" d="M118.968,79.184c2.238-1.756,3.712-2.289,4.331-3.115c0.62-0.826,8.061-5.693,9.714-5.379
	c1.652,0.315,3.72,3.104,3.823,4.449c0.103,1.344,0.826,9.506-1.033,10.85c-1.86,1.344-5.271,2.377-6.613,3.203
	c-1.344,0.827-3.617,2.08-3.41,2.951c0.206,0.872,1.446,2.317,2.996,2.629c1.556,0.31,4.03-1.742,4.443-2.629
	c0.413-0.886,1.653-1.504,3.307-1.4c1.653,0.104,4.03,1.922,2.896,4.062c-1.136,2.139-4.334,2.925-4.854,3.854
	c-0.517,0.93-2.227,2.83-4.78,2.521c-2.563-0.311-8.143-4.443-9.584-4.65c-1.446-0.206-4.443,0-5.166-1.756
	c-0.729-1.757-0.003-4.769,0.928-4.769c0.931,0,4.444-0.604,5.892-2.053c1.446-1.446,7.285-4.391,7.543-5.373
	c0.263-0.98,0.729-3.048-0.62-2.945c-1.343,0.104-4.392,2.378-4.96,2.945c-0.563,0.568-2.939,2.017-3.817,2.48
	c-0.879,0.465-1.604,1.084-3.41,2.323c-1.813,1.24-4.288-0.555-4.856-1.438c-0.564-0.885-0.413-3.571,0.521-4.502
	C113.173,80.512,116.813,80.873,118.968,79.184z"/>
<path id="path2949" fill="#5F6CFF" d="M158.742,83.922c0.878-1.239,2.434-2.064,2.043-5.406c-0.396-3.343,1.643-5.167,4.639-4.65
	s2.331,2.386,2.538,4.555c0.206,2.171-0.54,3.126-0.854,4.057c-0.31,0.931-0.024,2.065,0.863,2.479
	c0.896,0.413,5.027,0.826,5.338-2.996c0.313-3.823,0.826-6.924,2.375-7.544c1.551-0.62,3.617,0.62,4.342,1.034
	c0.728,0.412,1.445,4.236,0,5.992c-1.442,1.757-2.377,5.477-1.235,6.2c1.138,0.723,7.646,5.683,7.854,7.337
	c0.205,1.651,0.104,3.1-2.17,3.72c0,0-3.256,0-3.875-1.446c-0.621-1.446-2.584-4.547-3.41-5.012s-2.271-1.293-3.308-0.207
	c-0.565,0.594-2.118,2.67-3.221,3.635c-1.104,0.963-3.169,2.754-4.479,3.064c-1.309,0.31-2.789,0.637-3.563-0.139
	c-0.775-0.773-2.479-1.91-2.229-2.842c0.26-0.93,2.739-2.324,3.205-2.583c0.463-0.259,1.549-1.239,1.91-1.859
	c0.362-0.62,0.979-1.809,0.568-2.066c-0.413-0.258-2.066-0.413-2.641-0.103c-0.563,0.309-6.975,5.372-8.009,6.25
	c-1.032,0.879-2.583,1.705-3.356,1.705c-0.771,0-1.344-0.31-2.222-1.445c-0.879-1.138-0.104-2.48,0.775-3.307
	c0.878-0.828,1.191-0.773,3.936-2.841C157.303,87.437,157.861,85.162,158.742,83.922z"/>
<path id="path2951" fill="#5F6CFF" d="M177.411,68.422c-0.229,1.856-0.481,5.374,1.308,5.719c1.793,0.345,3.789,0.481,4.202-2.066
	c0.414-2.55,1.312-8.749,1.379-11.021c0.068-2.273,1.447-9.575,1.584-11.986c0.138-2.41-0.139-4.546-1.31-5.51
	c-1.176-0.966-6.405-3.582-8.196-3.789c-1.792-0.207-2.619,2.272-2.205,3.375c0.413,1.102,1.653,3.582,2.411,4.063
	c0.758,0.482,3.438,1.24,3.409,2.549c-0.033,1.31-0.313,6.063-1.479,7.716c-1.172,1.652-2.824,2.204-2.963,0.619
	c-0.138-1.584,0.206-6.199,0.068-7.646c-0.143-1.446-0.414-3.444-0.971-4.063c-0.549-0.62-3.582-1.723-5.166-0.896
	s-2.754,0.758-2.342,2.066c0.414,1.31,2.342,2.756,2.549,3.857c0.207,1.103-0.063,4.821-0.271,6.613
	c-0.207,1.79-1.034,5.304-0.62,6.751c0.413,1.446,0.14,2.662,1.584,2.915c1.447,0.253,3.043-1.384,3.456-1.591
	C174.254,65.889,177.643,66.565,177.411,68.422z"/>
<g id="XMLID_3_">
	<g id="g2954">
		<path id="path2956" fill="#5F6CFF" d="M166.734,63.67c0.435,1.239,0.479,2.752-0.207,5.166c-0.689,2.414-6.354,5.787-8.383,5.854
			c-2.021,0.074-5.811-0.62-7.258-2.133c-1.447-1.514-2.687-2.688-2.893-5.232c-0.207-2.555,0.81-5.166,1.813-5.927
			c1.009-0.761,2.455-2.621,5.274-3.308c2.827-0.687,4.34-0.893,7.229,0.62C165.213,60.223,166.307,62.43,166.734,63.67z
			 M160.395,68.63c1.519-1.381,1.926-2.826,0.967-3.992c-0.967-1.175-5.781-1.24-6.688-0.207c-0.896,1.033-0.826,2.687,0.76,3.853
			C157.021,69.456,158.882,70.01,160.395,68.63z"/>
	</g>
</g>
<path id="path2958" fill="#5F6CFF" d="M149.779,56.865c2.185,0.426,4.601-0.848,7.313-0.908c2.84-0.063,6.646,2.106,7.846,1.778
	c1.194-0.327,2.48-1.108,2.033-2.485c-0.449-1.377-0.984-2.803-2.656-2.915c-1.674-0.111-6.092-1.9-6.896-1.968
	c-0.805-0.064-5.48,0.072-6.38,0.176c-0.9,0.105-4.033,1.963-3.354,3.92C147.686,54.463,147.601,56.438,149.779,56.865z"/>
<path id="path2960" fill="#5F6CFF" d="M153.555,49.154c2.362-0.158,3.926-1.297,4.918-1.588s5.133-0.86,5.793-1.055
	c0.66-0.193,2.146-1.492,1.368-2.916c-0.776-1.423-1.575-2.484-3.44-2.435c-1.861,0.05-2.144,0.609-4.555,1.121
	c-2.41,0.513-3.65,0.306-5.304,1.271c-1.653,0.965-2.235,2.463-1.909,3.505C150.751,48.101,151.189,49.314,153.555,49.154z"/>
<g id="XMLID_2_">
	<g id="g2963">
		<path id="path2965" fill="#5F6CFF" d="M231.553,58.156c0.555,6.479-3.307,12.127-3.992,14.053c-0.687,1.936-7.58,16.4-8.82,18.881
			c-1.235,2.479-4.961,10.466-6.059,11.572c-1.101,1.101-2.479,1.24-3.447,0.546c-0.959-0.687-2.194-1.24-0.828-4.133
			c1.386-2.894,3.387-10.399,5.242-14.054c1.859-3.646,3.992-7.365,3.519-8.886c-0.487-1.514-3.179-0.96-4.345-0.479
			c-1.174,0.479-3.629,2.918-5.649,4.405c-3.167,2.348-7.299,2.621-10.606,0.968c-3.307-1.653-6.754-1.513-7.58-6.2
			c-0.826-4.687-0.545-10.604,3.859-14.192c4.406-3.579,11.715-4.267,15.434-1.514c3.726,2.753,5.098,6.2,5.098,8.126
			c0,1.936,0,2.762,2.479,2.479c2.48-0.272,4.828,0.141,6.067-3.025c1.236-3.174,2.606-5.786,2.606-7.853
			c0-2.067-1.647-2.207-1.647-4.135c0-1.935,1.236-3.446,3.033-3.588C227.701,50.997,231.007,51.684,231.553,58.156z
			 M205.794,73.177c0.786-1.34,1.05-3.308,0.372-4.547c-0.669-1.239-1.339-2.208-2.993-2.066c-1.653,0.141-2.62,0-3.993-0.142
			c-1.38-0.132-3.271,1.762-3.72,3.176c-0.455,1.413-0.146,1.306,0.063,3.216c0.207,1.918,0.479,2.703,3.518,2.844
			C202.075,75.797,205.001,74.516,205.794,73.177z"/>
	</g>
</g>
<g id="XMLID_4_">
	<g id="g2968">
		<path id="path2970" fill="#5F6CFF" d="M267.141,87.13c0,0,1.024,6.507,0.197,7.854c-0.826,1.34-4.133,7.439-6.299,7.746
			c-2.166,0.306-3.104-0.307-3.818,0.413c-0.728,0.72-4.547,6.406-4.861,7.646c-0.313,1.24-0.313,2.48,1.24,2.794
			c1.555,0.308,5.063,1.96,5.063,3.919c0,1.967-0.198,2.894-1.959,3.414c-1.767,0.521-4.854,0.62-6.312-0.521
			c-1.438-1.132-9.813-6.505-12.599-7.439c-2.794-0.926-6.104-2.786-7.754-4.024c-1.653-1.24-4.34-1.447-5.787-2.176
			c-1.446-0.719-5.478-1.752-5.688-4.743c-0.193-3.002,0.521-4.861,3-4.654c2.479,0.207,10.953,6.721,11.687,6.613
			c0.72-0.107,1.546-0.413,1.752-2.373c0.207-1.968,3.621-5.895,5.373-6.001c1.752-0.101,2.993,2.28,3.401,3.307
			c0.414,1.041-2.987,4.447-2.894,5.588c0.106,1.133,0.728,3.72,1.868,3.505c1.132-0.198,3.199-0.611,4.546-2.785
			c1.339-2.175,2.894-2.894,2.579-3.612c-0.314-0.729-3.621-2.894-5.477-5.373c-1.863-2.479-2.277-7.135-1.043-10.746
			c1.24-3.621,4.767-6.613,7.14-7.134c2.373-0.521,6.401-2.479,10.126,0.306C264.346,81.442,266.727,84.236,267.141,87.13z
			 M260.626,93.33c1.033-1.042,1.033-2.175,0.728-3.521c-0.313-1.339-2.063-2.231-3.521-2.992c-1.438-0.761-3.579-0.702-5.063-0.313
			c-1.554,0.413-3.72,3.107-2.893,5.273s1.652,2.166,3.406,3.1c1.761,0.936,2.381,0.721,4.029,0.721
			C258.973,95.596,259.593,94.354,260.626,93.33z"/>
	</g>
</g>
<g>
	<circle fill="none" stroke="#5F6CFF" stroke-width="5" cx="157.325" cy="188.969" r="60.722"/>
	<path fill="#5F6CFF" d="M204.691,150.971c3.148,3.906,5.749,8.242,7.862,12.855c16.257,1.766,26.855,6.095,27.832,12.521
		c1.91,12.574-33.729,28.416-79.602,35.387c-45.873,6.969-84.609,2.426-86.52-10.146c-0.976-6.421,7.839-13.693,22.808-20.202
		c0.635-5.099,1.902-10.001,3.72-14.627c-40.281,11.581-66.958,27.372-64.938,40.663c2.794,18.389,59.443,25.031,126.528,14.839
		c67.087-10.192,119.206-33.36,116.412-51.749C276.775,157.219,246.605,150.063,204.691,150.971z"/>
</g>
</svg>
